<svg width="141" height="194" viewBox="0 0 141 194" fill="none" xmlns="http://www.w3.org/2000/svg">
<path d="M60.6221 1.3111C69.4573 -1.12622 78.8867 -0.141796 87.028 4.06787C95.1693 8.27754 101.423 15.4027 104.542 24.0211C109.102 36.5711 105.802 51.5211 96.6421 61.1711C93.5621 64.5511 89.3321 66.5111 85.9521 69.5111C83.6621 71.3911 84.4821 75.4411 87.1521 76.5111C88.9621 77.5111 91.0321 76.6811 92.9221 76.3911C102.712 74.1211 112.462 71.6511 122.262 69.3911C125.303 68.714 128.485 69.1161 131.262 70.5283C134.039 71.9405 136.238 74.2749 137.482 77.1311C138.742 80.8911 139.482 84.8011 140.412 88.6711C141.932 95.2311 137.672 102.531 131.112 104.221C121.192 106.831 111.112 109.001 101.222 111.571C97.7321 112.431 94.3621 114.971 93.7821 118.721C93.0221 122.101 94.9821 125.281 97.0021 127.831C107.102 140.404 117.202 152.974 127.302 165.541C128.789 167.331 129.79 169.474 130.209 171.763C130.628 174.052 130.45 176.411 129.692 178.611C127.942 183.921 122.692 186.611 118.692 190.141C113.432 194.851 104.452 194.341 99.9221 188.871C91.8621 179.251 84.0721 169.401 76.1221 159.691C74.4221 157.641 71.8921 155.561 69.0421 156.291C67.0018 157.122 65.235 158.507 63.9421 160.291C56.6521 169.391 49.2421 178.401 41.9421 187.471C40.5433 189.492 38.625 191.097 36.3897 192.118C34.1544 193.139 31.685 193.537 29.2421 193.271C23.6121 192.891 19.9421 188.151 15.6821 185.081C9.68207 180.791 8.49206 171.371 13.2321 165.721C23.2321 153.131 33.392 140.601 43.472 128.061C45.632 125.421 47.6021 122.151 46.8321 118.591C46.3421 114.801 42.7621 112.411 39.3321 111.521C29.6021 109.071 19.8321 106.841 10.1121 104.391C6.92979 103.574 4.15633 101.621 2.31434 98.9003C0.472345 96.1797 -0.310959 92.8793 0.112066 89.6211C0.822066 85.7311 1.80209 81.8911 2.85209 78.0811C3.89451 75.0101 6.02234 72.4253 8.83591 70.8123C11.6495 69.1992 14.9552 68.669 18.1321 69.3211C28.8621 71.6711 39.4721 74.6011 50.2321 76.7911C54.2321 78.2411 57.842 72.9311 55.092 69.7911C52.332 67.1111 48.7221 65.5111 45.9421 62.8611C32.8221 51.4311 30.2221 29.9411 40.3621 15.7611C45.2246 8.73015 52.3909 3.61899 60.6221 1.3111Z" fill="#ffffff"/>
</svg>
